<svg xmlns="http://www.w3.org/2000/svg" width="960" height="700" viewBox="0 0 960 700">
<style>text{font-family:system-ui,sans-serif;fill:#172033}.axis{stroke:#60708a;stroke-width:1}.line{fill:none;stroke:#1769aa;stroke-width:2}.publishable{fill:#1769aa}.regression{fill:white;stroke:#c43c39;stroke-width:2;stroke-dasharray:3 2}.regression-unresolved{fill:#fff4e5;stroke:#b85c00;stroke-width:3}.note{font-size:12px;fill:#526173}</style>
<rect width="960" height="700" fill="#f7f9fc"/>
<text x="40" y="34" font-size="20">sweep-3-level explicit rate sweep</text>
<text class="note" x="40" y="55">Solid: candidate; dashed red: regression; orange: below timer resolution. No saturation conclusion.</text>
<text x="60" y="75" font-size="14">p50 latency (ns)</text>
<line class="axis" x1="60" y1="295" x2="440" y2="295"/>
<line class="axis" x1="60" y1="85" x2="60" y2="295"/>
<polyline class="line" points="60.00,87.50 90.00,85.00 140.00,87.50 240.00,87.50 440.00,87.50"/>
<text class="note" x="60" y="315">100000</text>
<text class="note" x="405" y="315">2e+06</text>
<text class="note" x="205.0" y="333">requested rate</text>
<text class="note" x="64" y="98">84</text>
<circle class="regression-unresolved" cx="60.00" cy="87.50" r="5"><title>below timer resolution; quantization 41 ns</title></circle>
<circle class="regression-unresolved" cx="90.00" cy="85.00" r="5"><title>below timer resolution; quantization 41 ns</title></circle>
<circle class="regression-unresolved" cx="140.00" cy="87.50" r="5"><title>below timer resolution; quantization 41 ns</title></circle>
<circle class="regression-unresolved" cx="240.00" cy="87.50" r="5"><title>below timer resolution; quantization 41 ns</title></circle>
<circle class="regression-unresolved" cx="440.00" cy="87.50" r="5"><title>below timer resolution; quantization 41 ns</title></circle>
<text x="520" y="75" font-size="14">p99 latency (ns)</text>
<line class="axis" x1="520" y1="295" x2="900" y2="295"/>
<line class="axis" x1="520" y1="85" x2="520" y2="295"/>
<polyline class="line" points="520.00,85.00 550.00,284.34 600.00,285.87 700.00,285.87 900.00,246.32"/>
<text class="note" x="520" y="315">100000</text>
<text class="note" x="865" y="315">2e+06</text>
<text class="note" x="665.0" y="333">requested rate</text>
<text class="note" x="524" y="98">5751</text>
<circle class="regression-unresolved" cx="520.00" cy="85.00" r="5"><title>below timer resolution; quantization 41 ns</title></circle>
<circle class="regression-unresolved" cx="550.00" cy="284.34" r="5"><title>below timer resolution; quantization 41 ns</title></circle>
<circle class="regression-unresolved" cx="600.00" cy="285.87" r="5"><title>below timer resolution; quantization 41 ns</title></circle>
<circle class="regression-unresolved" cx="700.00" cy="285.87" r="5"><title>below timer resolution; quantization 41 ns</title></circle>
<circle class="regression-unresolved" cx="900.00" cy="246.32" r="5"><title>below timer resolution; quantization 41 ns</title></circle>
<text x="60" y="365" font-size="14">p99.9 latency (ns)</text>
<line class="axis" x1="60" y1="585" x2="440" y2="585"/>
<line class="axis" x1="60" y1="375" x2="60" y2="585"/>
<polyline class="line" points="60.00,375.00 90.00,456.27 140.00,506.82 240.00,438.83 440.00,466.46"/>
<text class="note" x="60" y="605">100000</text>
<text class="note" x="405" y="605">2e+06</text>
<text class="note" x="205.0" y="623">requested rate</text>
<text class="note" x="64" y="388">31007</text>
<circle class="regression-unresolved" cx="60.00" cy="375.00" r="5"><title>below timer resolution; quantization 41 ns</title></circle>
<circle class="regression-unresolved" cx="90.00" cy="456.27" r="5"><title>below timer resolution; quantization 41 ns</title></circle>
<circle class="regression-unresolved" cx="140.00" cy="506.82" r="5"><title>below timer resolution; quantization 41 ns</title></circle>
<circle class="regression-unresolved" cx="240.00" cy="438.83" r="5"><title>below timer resolution; quantization 41 ns</title></circle>
<circle class="regression-unresolved" cx="440.00" cy="466.46" r="5"><title>below timer resolution; quantization 41 ns</title></circle>
<text x="520" y="365" font-size="14">max harness arrival backlog (events)</text>
<line class="axis" x1="520" y1="585" x2="900" y2="585"/>
<line class="axis" x1="520" y1="375" x2="520" y2="585"/>
<polyline class="line" points="520.00,532.50 550.00,536.25 600.00,521.25 700.00,435.00 900.00,375.00"/>
<text class="note" x="520" y="605">100000</text>
<text class="note" x="865" y="605">2e+06</text>
<text class="note" x="665.0" y="623">requested rate</text>
<text class="note" x="524" y="388">56</text>
<circle class="regression-unresolved" cx="520.00" cy="532.50" r="5"><title>below timer resolution; quantization 41 ns</title></circle>
<circle class="regression-unresolved" cx="550.00" cy="536.25" r="5"><title>below timer resolution; quantization 41 ns</title></circle>
<circle class="regression-unresolved" cx="600.00" cy="521.25" r="5"><title>below timer resolution; quantization 41 ns</title></circle>
<circle class="regression-unresolved" cx="700.00" cy="435.00" r="5"><title>below timer resolution; quantization 41 ns</title></circle>
<circle class="regression-unresolved" cx="900.00" cy="375.00" r="5"><title>below timer resolution; quantization 41 ns</title></circle>
</svg>